<?xml version="1.0" encoding="utf-8"?>
<!-- Generator: Adobe Illustrator 27.0.1, SVG Export Plug-In . SVG Version: 6.00 Build 0)  -->
<svg version="1.1" id="Layer_1" xmlns="http://www.w3.org/2000/svg" xmlns:xlink="http://www.w3.org/1999/xlink" x="0px" y="0px"
	 viewBox="0 0 2157 577" style="enable-background:new 0 0 2157 577;" xml:space="preserve">
<style type="text/css">
	.st0{fill:#767D59;}
	.st1{fill:#D0FF56;}
	.st2{fill:#E8ECD8;}
	.st3{fill:#5C6A2B;}
	.st4{fill:#2E400B;}
</style>
<path class="st4" d="M20.8,162.33c47.31,0,94.62,0,141.93,0c0.09,0.35,0.18,0.7,0.27,1.05c-2.01,0.48-4,1.08-6.03,1.41
	c-9.03,1.47-18.11,2.69-27.1,4.38c-4.06,0.76-8.07,2.12-11.88,3.74c-7.71,3.29-9.63,7.51-7.48,15.55
	c4.85,18.16,9.73,36.32,14.63,54.47c20.61,76.32,41.23,152.64,61.85,228.97c0.34,1.28,0.75,2.54,1.48,4.97
	c3.3-12.77,6.35-24.49,9.35-36.22c17.94-70.12,35.91-140.24,53.69-210.4c0.84-3.31,0.59-7.22-0.26-10.57
	c-2.5-9.83-6.01-19.42-8.29-29.3c-2.79-12.08-10.56-18.51-21.97-21.21c-7.28-1.72-14.69-2.88-22.04-4.31
	c-1.7-0.33-3.38-0.72-5.07-1.09c0.05-0.41,0.1-0.82,0.15-1.23c47.48,0,94.96,0,142.43,0c0.06,0.4,0.12,0.81,0.18,1.21
	c-5.73,0.73-11.52,1.2-17.19,2.24c-9.46,1.74-19.03,3.25-28.23,5.96c-7.66,2.26-9.87,7.53-7.76,15.37
	c25.64,95.13,51.34,190.24,77.03,285.36c0.24,0.88,0.57,1.74,1.31,3.97c2.74-10.59,5.15-19.89,7.54-29.19
	c18.4-71.38,36.87-142.74,55.1-214.16c2.76-10.8,4.17-21.82,2.67-33.14c-2.09-15.76-11.45-25.07-25.67-30.13
	c-6.09-2.17-12.53-3.39-18.8-5.06c-1.51-0.4-3-0.88-4.29-2.48c42.69,0,85.39,0,128.08,0c0.11,0.33,0.21,0.66,0.32,0.99
	c-1.56,0.51-3.12,1.05-4.69,1.52c-8.29,2.46-16.8,4.35-24.82,7.48c-17.81,6.94-29.01,20.67-34.84,38.28
	c-6.21,18.79-11.44,37.93-16.38,57.1c-23.51,91.13-46.78,182.32-70.15,273.48c-0.37,1.43-0.82,2.84-1.21,4.16
	c-8.3,1.11-8.3,1.11-10.46-6.33c-27.81-95.83-55.63-191.65-83.45-287.47c-0.49-1.7-1.12-3.36-2.16-6.45
	c-4.45,17.31-8.54,33.16-12.61,49.01c-21.09,82.27-42.26,164.53-63.1,246.86c-1.63,6.44-5.5,4.59-9.74,4.78
	c-0.56-1.68-1.17-3.35-1.66-5.05c-33.9-116.6-67.89-233.18-101.53-349.86c-3.58-12.43-11.02-19.33-23.11-21.98
	c-6.99-1.53-14.04-2.75-21.06-4.14c-1.73-0.34-3.44-0.75-5.16-1.13C20.68,163.27,20.74,162.8,20.8,162.33z"/>
<path class="st4" d="M1015.66,545.5c-46.76,0-93.52,0-140.27,0c-0.08-0.41-0.15-0.83-0.23-1.24c1.92-0.43,3.84-0.92,5.78-1.28
	c11.44-2.12,23.07-3.49,34.26-6.5c10.53-2.83,12.02-7.79,7.19-17.71c-31.57-64.78-63.17-129.54-94.66-194.36
	c-1.45-2.97-3.39-4.52-6.49-5.41c-5.71-1.64-11.31-3.66-17.46-5.69c0,2.29,0,4.1,0,5.91c0,62.32,0.19,124.64-0.13,186.96
	c-0.08,16.28,6.27,25.52,22.79,30.77c8.21,2.61,16.81,4.02,25.23,5.99c1.46,0.34,2.9,0.78,4.34,1.18c-0.08,0.44-0.15,0.87-0.23,1.31
	c-45.85,0-91.71,0-137.56,0c-0.12-0.32-0.24-0.64-0.36-0.96c1.49-0.52,2.94-1.17,4.46-1.54c8.4-2.05,16.96-3.58,25.2-6.12
	c15.86-4.9,22.26-14.12,22.26-30.8c0-101.31,0-202.62,0-303.93c0-17.07-6.82-26.76-23.21-31.8c-7.6-2.34-15.53-3.63-23.31-5.4
	c-1.77-0.4-3.55-0.83-5.32-1.24c0.06-0.44,0.11-0.87,0.17-1.31c1.37-0.12,2.73-0.36,4.1-0.36c47.99,0.02,95.98-0.17,143.97,0.22
	c17.17,0.14,34.16,2.66,50.65,7.91c31.57,10.04,49.44,33.26,52.4,65.87c3.46,38.13-17.78,68.64-52.29,82.69
	c-15.34,6.24-31.36,8.68-48.44,8.44c0.74,1.74,1.22,3.09,1.87,4.36c31.94,62.55,63.97,125.05,95.77,187.68
	c5.4,10.64,13.72,16.94,24.95,19.7c6.78,1.67,13.69,2.78,20.54,4.17c1.47,0.3,2.91,0.72,4.37,1.08
	C1015.87,544.56,1015.77,545.03,1015.66,545.5z M803.77,248.79c0,18,0.01,35.99-0.02,53.99c0,2.4,0.01,4.26,2.9,5.5
	c18.26,7.88,37.06,12.72,57.16,11.91c30.13-1.21,53.34-18.64,61.07-47.74c6.28-23.67,3.73-46.98-7.22-69.01
	c-5.79-11.67-14.86-20.6-26.56-26.27c-20.01-9.7-41.27-11.56-62.92-7.69c-17.46,3.12-24.33,12.01-24.41,29.81
	C803.72,215.8,803.77,232.29,803.77,248.79z"/>
<path class="st4" d="M508.43,545.63c-43.2,0-86.39,0-129.59,0c-0.13-0.37-0.25-0.75-0.38-1.12c1.61-0.53,3.21-1.13,4.85-1.59
	c11.36-3.13,22.99-5.53,34.04-9.52c14.58-5.26,24.59-16.04,29.64-30.58c11.65-33.5,22.9-67.13,34.05-100.8
	c26.8-80.94,53.44-161.93,80.15-242.9c0.91-2.77,1.26-5.47,5.68-5.38c4.26,0.09,5.88,1.54,7.27,5.38
	c43.47,119.76,87.13,239.45,130.58,359.22c4.37,12.05,13.04,18.13,24.85,20.53c8.48,1.72,17.09,2.77,25.63,4.16
	c1.61,0.26,3.19,0.74,4.79,1.11c-0.08,0.44-0.17,0.88-0.25,1.32c-49.52,0-99.04,0-148.56,0c-0.09-0.4-0.18-0.81-0.27-1.21
	c2.05-0.43,4.09-0.91,6.15-1.27c12.6-2.21,25.36-3.77,37.77-6.76c10.5-2.52,12.62-7.83,8.96-17.95
	c-18.97-52.39-38.01-104.76-56.86-157.19c-1.26-3.49-2.96-4.4-6.46-4.38c-30.5,0.13-61,0.11-91.49,0.02
	c-2.92-0.01-4.79,0.29-5.88,3.61c-13.8,42.2-27.79,84.35-41.64,126.53c-1.14,3.46-2,7.07-2.44,10.68
	c-2.26,18.73,4.92,31.28,22.48,38.32c7.37,2.96,15.23,4.68,22.87,6.97c1.48,0.44,2.97,0.87,4.45,1.31
	C508.69,544.65,508.56,545.14,508.43,545.63z M552.43,211.42c-15.32,46.4-30.3,91.76-45.38,137.43c32.09,0,63.34,0,95.26,0
	C585.7,303.09,569.26,257.78,552.43,211.42z"/>
<path class="st4" d="M1100.43,545.63c-43.2,0-86.39,0-129.59,0c-0.13-0.37-0.25-0.75-0.38-1.12c1.61-0.53,3.21-1.13,4.85-1.59
	c11.36-3.13,22.99-5.53,34.04-9.52c14.58-5.26,24.59-16.04,29.64-30.58c11.65-33.5,22.9-67.13,34.05-100.8
	c26.8-80.94,53.44-161.93,80.15-242.9c0.91-2.77,1.26-5.47,5.68-5.38c4.26,0.09,5.88,1.54,7.27,5.38
	c43.47,119.76,87.13,239.45,130.58,359.22c4.37,12.05,13.04,18.13,24.85,20.53c8.48,1.72,17.09,2.77,25.63,4.16
	c1.61,0.26,3.19,0.74,4.79,1.11c-0.08,0.44-0.17,0.88-0.25,1.32c-49.52,0-99.04,0-148.56,0c-0.09-0.4-0.18-0.81-0.27-1.21
	c2.05-0.43,4.09-0.91,6.15-1.27c12.6-2.21,25.36-3.77,37.77-6.76c10.5-2.52,12.62-7.83,8.96-17.95
	c-18.97-52.39-38.01-104.76-56.86-157.19c-1.26-3.49-2.96-4.4-6.46-4.38c-30.5,0.13-61,0.11-91.49,0.02
	c-2.92-0.01-4.79,0.29-5.88,3.61c-13.8,42.2-27.79,84.35-41.65,126.53c-1.14,3.46-2,7.07-2.44,10.68
	c-2.26,18.73,4.92,31.28,22.48,38.32c7.37,2.96,15.23,4.68,22.87,6.97c1.48,0.44,2.97,0.87,4.45,1.31
	C1100.69,544.65,1100.56,545.14,1100.43,545.63z M1144.43,211.42c-15.32,46.4-30.3,91.76-45.38,137.43c32.09,0,63.34,0,95.26,0
	C1177.7,303.09,1161.26,257.78,1144.43,211.42z"/>
<path class="st4" d="M1609.43,545.63c-43.2,0-86.39,0-129.59,0c-0.13-0.37-0.25-0.75-0.38-1.12c1.61-0.53,3.21-1.13,4.85-1.59
	c11.36-3.13,22.99-5.53,34.04-9.52c14.58-5.26,24.59-16.04,29.64-30.58c11.65-33.5,22.9-67.13,34.05-100.8
	c26.8-80.94,53.44-161.93,80.15-242.9c0.91-2.77,1.26-5.47,5.68-5.38c4.26,0.09,5.88,1.54,7.27,5.38
	c43.47,119.76,87.13,239.45,130.58,359.22c4.37,12.05,13.04,18.13,24.85,20.53c8.48,1.72,17.09,2.77,25.63,4.16
	c1.61,0.26,3.19,0.74,4.79,1.11c-0.08,0.44-0.17,0.88-0.25,1.32c-49.52,0-99.04,0-148.56,0c-0.09-0.4-0.18-0.81-0.27-1.21
	c2.05-0.43,4.09-0.91,6.15-1.27c12.6-2.21,25.36-3.77,37.77-6.76c10.5-2.52,12.62-7.83,8.96-17.95
	c-18.97-52.39-38.01-104.76-56.86-157.19c-1.26-3.49-2.96-4.4-6.46-4.38c-30.5,0.13-61,0.11-91.49,0.02
	c-2.92-0.01-4.79,0.29-5.88,3.61c-13.8,42.2-27.79,84.35-41.65,126.53c-1.14,3.46-2,7.07-2.44,10.68
	c-2.26,18.73,4.92,31.28,22.48,38.32c7.37,2.96,15.23,4.68,22.87,6.97c1.48,0.44,2.97,0.87,4.45,1.31
	C1609.69,544.65,1609.56,545.14,1609.43,545.63z M1653.43,211.42c-15.32,46.4-30.3,91.76-45.38,137.43c32.09,0,63.34,0,95.26,0
	C1686.7,303.09,1670.26,257.78,1653.43,211.42z"/>
<path class="st4" d="M1823.14,162.41c46.89,0,93.78,0,140.67,0c0.08,0.43,0.15,0.85,0.23,1.28c-3.06,0.72-6.14,1.41-9.19,2.16
	c-7.27,1.78-14.7,3.07-21.75,5.5c-13.41,4.61-21.46,13.42-21.31,29.41c0.44,45.65,0.16,91.32,0.16,136.97c0,1.8,0,3.61,0,5.73
	c43.47,0,86.54,0,130.17,0c0.11-1.76,0.32-3.51,0.32-5.25c0.02-45.82,0.03-91.65,0-137.47c-0.01-15.75-6.13-24.61-21.17-29.4
	c-8.54-2.72-17.42-4.35-26.14-6.49c-1.46-0.36-2.89-0.83-4.34-1.25c0.1-0.4,0.19-0.8,0.29-1.19c46.89,0,93.78,0,140.67,0
	c0.11,0.35,0.22,0.71,0.33,1.06c-1.54,0.48-3.05,1.04-4.61,1.42c-8.57,2.08-17.3,3.62-25.68,6.27
	c-13.66,4.32-22.06,13.35-22.01,29.88c0.34,101.98,0.34,203.96,0,305.94c-0.06,16.69,8.76,25.67,22.1,29.81
	c8.4,2.6,17.13,4.11,25.71,6.12c1.51,0.35,3,0.77,4.5,1.16c-0.06,0.43-0.12,0.85-0.18,1.28c-46.94,0-93.89,0-140.83,0
	c-0.1-0.35-0.2-0.69-0.3-1.04c1.37-0.45,2.71-1,4.11-1.33c8.57-2.06,17.29-3.6,25.69-6.19c15.65-4.82,21.85-13.64,21.85-29.89
	c0.02-49.99,0.01-99.98,0.01-149.97c0-1.65,0-3.3,0-5.37c-43.57,0-86.75,0-130.5,0c0,1.85,0,3.63,0,5.41
	c0,50.16,0.25,100.32-0.15,150.47c-0.12,15.42,7.54,24.4,20.63,28.83c8.78,2.97,18.06,4.47,27.11,6.64
	c1.52,0.36,3.03,0.76,4.55,1.15c-0.06,0.43-0.13,0.85-0.19,1.28c-46.93,0-93.87,0-140.8,0c-0.11-0.32-0.22-0.63-0.33-0.95
	c1.52-0.49,3.02-1.09,4.57-1.46c8.56-2.08,17.29-3.61,25.68-6.24c15.29-4.8,21.42-13.66,21.42-29.71
	c0.02-101.98,0.01-203.96,0-305.94c0-16.24-6.22-25.03-21.86-29.89c-8.24-2.56-16.78-4.17-25.18-6.22
	c-1.52-0.37-3.04-0.76-4.56-1.13C1822.93,163.31,1823.04,162.86,1823.14,162.41z"/>
<path class="st4" d="M1486.89,545.06c-46.6,0-93.2,0-139.8,0c-0.14-0.36-0.27-0.72-0.41-1.08c1.4-0.56,2.75-1.3,4.2-1.65
	c8.51-2.06,17.18-3.56,25.52-6.13c15.7-4.85,21.83-13.69,21.83-30.16c0-102.12,0.01-204.23,0-306.35c0-15.22-4.62-23.84-15.54-27.7
	c-12.42-4.38-24.63-4.1-36.28,2.96c-14.46,8.76-23.58,22-30.83,36.71c-11.83,24-16.34,49.81-18.26,76.21
	c-0.08,1.15-0.18,2.29-0.26,3.41c-3.69,0.57-3.72,0.57-3.6-3.03c0.38-11.74,1.36-23.5,1.05-35.22c-0.74-28.44-2.07-56.86-3.16-85.29
	c-0.04-1.12-0.01-2.24-0.01-3.56c83.74,0,167.24,0,250.3,0c-0.82,19.22-2.09,38.19-2.3,57.17c-0.25,22,0.44,44,0.67,66
	c0.02,2.12,1.35,5.43-2.83,4.49c-1.89-13.31-3.16-26.5-5.74-39.42c-4.67-23.44-12.91-45.42-28.54-64.12
	c-13.78-16.47-31.25-22.68-49.26-17.02c-11.71,3.68-18.29,12.47-18.31,24.79c-0.05,26.81-0.02,53.62-0.02,80.43
	c0,76.46,0,152.93,0,229.39c0,16.72,6.13,25.5,22.17,30.39c8.35,2.55,17.03,4.02,25.55,6.02c1.42,0.33,2.81,0.82,4.21,1.24
	C1487.14,544.06,1487.01,544.56,1486.89,545.06z"/>
<g>
	<path class="st4" d="M972.08,67.05c-5.41,0-10.83,0-16.24,0c-0.02-0.04-0.03-0.08-0.05-0.13c0.16-0.07,0.32-0.15,0.49-0.19
		c0.99-0.24,2-0.41,2.97-0.71c1.82-0.56,2.54-1.59,2.54-3.5c0-11.86,0-23.73,0-35.59c0-1.77-0.54-2.77-1.81-3.22
		c-1.44-0.51-2.86-0.48-4.22,0.34c-1.68,1.02-2.74,2.56-3.58,4.27c-1.37,2.79-1.9,5.79-2.12,8.85c-0.01,0.13-0.02,0.27-0.03,0.4
		c-0.43,0.07-0.43,0.07-0.42-0.35c0.04-1.36,0.16-2.73,0.12-4.09c-0.09-3.3-0.24-6.61-0.37-9.91c-0.01-0.13,0-0.26,0-0.41
		c9.73,0,19.43,0,29.08,0c-0.09,2.23-0.24,4.44-0.27,6.64c-0.03,2.56,0.05,5.11,0.08,7.67c0,0.25,0.16,0.63-0.33,0.52
		c-0.22-1.55-0.37-3.08-0.67-4.58c-0.54-2.72-1.5-5.28-3.32-7.45c-1.6-1.91-3.63-2.64-5.72-1.98c-1.36,0.43-2.12,1.45-2.13,2.88
		c-0.01,3.12,0,6.23,0,9.35c0,8.88,0,17.77,0,26.65c0,1.94,0.71,2.96,2.58,3.53c0.97,0.3,1.98,0.47,2.97,0.7
		c0.17,0.04,0.33,0.1,0.49,0.14C972.11,66.93,972.09,66.99,972.08,67.05z"/>
	<path class="st4" d="M1080.15,22.82c5.41,0,10.82,0,16.23,0c0.01,0.05,0.02,0.1,0.03,0.15c-0.35,0.08-0.71,0.16-1.06,0.25
		c-0.84,0.21-1.7,0.35-2.51,0.63c-1.55,0.53-2.48,1.55-2.46,3.39c0.05,5.27,0.02,10.54,0.02,15.8c0,0.21,0,0.42,0,0.66
		c5.02,0,9.99,0,15.02,0c0.01-0.2,0.04-0.4,0.04-0.61c0-5.29,0-10.58,0-15.86c0-1.82-0.71-2.84-2.44-3.39
		c-0.98-0.31-2.01-0.5-3.02-0.75c-0.17-0.04-0.33-0.1-0.5-0.14c0.01-0.05,0.02-0.09,0.03-0.14c5.41,0,10.82,0,16.23,0
		c0.01,0.04,0.03,0.08,0.04,0.12c-0.18,0.06-0.35,0.12-0.53,0.16c-0.99,0.24-2,0.42-2.96,0.72c-1.58,0.5-2.55,1.54-2.54,3.45
		c0.04,11.77,0.04,23.53,0,35.3c-0.01,1.93,1.01,2.96,2.55,3.44c0.97,0.3,1.98,0.47,2.97,0.71c0.17,0.04,0.35,0.09,0.52,0.13
		c-0.01,0.05-0.01,0.1-0.02,0.15c-5.42,0-10.83,0-16.25,0c-0.01-0.04-0.02-0.08-0.03-0.12c0.16-0.05,0.31-0.12,0.47-0.15
		c0.99-0.24,2-0.42,2.96-0.71c1.81-0.56,2.52-1.57,2.52-3.45c0-5.77,0-11.54,0-17.3c0-0.19,0-0.38,0-0.62c-5.03,0-10.01,0-15.06,0
		c0,0.21,0,0.42,0,0.62c0,5.79,0.03,11.58-0.02,17.36c-0.01,1.78,0.87,2.82,2.38,3.33c1.01,0.34,2.08,0.52,3.13,0.77
		c0.18,0.04,0.35,0.09,0.53,0.13c-0.01,0.05-0.01,0.1-0.02,0.15c-5.42,0-10.83,0-16.25,0c-0.01-0.04-0.03-0.07-0.04-0.11
		c0.18-0.06,0.35-0.13,0.53-0.17c0.99-0.24,2-0.42,2.96-0.72c1.76-0.55,2.47-1.58,2.47-3.43c0-11.77,0-23.53,0-35.3
		c0-1.87-0.72-2.89-2.52-3.45c-0.95-0.3-1.94-0.48-2.91-0.72c-0.18-0.04-0.35-0.09-0.53-0.13
		C1080.12,22.92,1080.14,22.87,1080.15,22.82z"/>
	<g id="Nxn36l.tif_00000134231336533661307980000000095212801163538584_">
		<g>
			<path class="st4" d="M1227.73,41.56c0,0.3,0,0.53,0,0.75c0,6.67,0.05,13.34-0.03,20.02c-0.02,2.13,1.06,2.93,2.58,3.35
				c1.06,0.3,2.19,0.5,3.29,0.49c2.15-0.01,4.31-0.06,6.43-0.34c2.79-0.36,4.63-2.08,5.74-4.62c0.96-2.2,1.43-4.53,1.74-6.9
				c0.57-4.32,0.7-8.66,0.71-13c0-0.15,0-0.3,0-0.45c0.05-0.03,0.11-0.07,0.16-0.1c0.09,0.11,0.24,0.21,0.27,0.34
				c0.04,0.2,0.01,0.42,0,0.63c-0.26,7.02,0,14.03,0.38,21.04c0.08,1.42,0.27,2.83,0.41,4.26c-10.63,0-21.27,0-31.91,0
				c-0.01-0.05-0.02-0.1-0.03-0.15c0.18-0.04,0.37-0.09,0.55-0.13c0.97-0.22,1.96-0.38,2.91-0.68c1.71-0.54,2.49-1.67,2.49-3.45
				c0-11.79,0-23.57,0-35.36c0-1.78-0.78-2.9-2.48-3.45c-0.93-0.3-1.9-0.46-2.85-0.69c-0.21-0.05-0.41-0.1-0.62-0.14
				c0.01-0.05,0.02-0.1,0.03-0.14c10.4,0,20.8,0,31.27,0c-0.53,4.6-0.47,9.22-0.24,13.83c-0.49,0.21-0.44-0.12-0.47-0.38
				c-0.18-1.33-0.3-2.68-0.58-3.98c-0.52-2.41-1.59-4.52-3.59-6.07c-1.64-1.27-3.53-1.93-5.55-2.25c-2.4-0.38-4.82-0.52-7.23-0.05
				c-0.99,0.19-1.97,0.51-2.65,1.28c-0.34,0.39-0.67,0.96-0.68,1.46c-0.05,4.59-0.03,9.19-0.04,13.79c0,0.05,0.02,0.11,0.06,0.23
				c2.01-0.09,4.06,0.27,6.04-0.39c2.21-0.73,3.59-2.37,4.59-4.37c0.88-1.75,1.33-3.64,1.67-5.55c0.03-0.17,0.06-0.34,0.11-0.51
				c0.01-0.05,0.06-0.08,0.25-0.11c-0.28,3.77-0.78,7.53-0.78,11.3c0,3.78,0.5,7.56,0.77,11.34c-0.06,0.01-0.12,0.03-0.18,0.04
				c-0.06-0.22-0.13-0.43-0.17-0.65c-0.42-2.16-0.93-4.29-2.06-6.2c-1.56-2.63-3.77-4.14-6.94-4.02
				C1230.01,41.59,1228.91,41.56,1227.73,41.56z"/>
		</g>
	</g>
</g>
</svg>
